<?xml version="1.0" encoding="utf-8"?>
<!-- Generator: Adobe Illustrator 16.0.3, SVG Export Plug-In . SVG Version: 6.00 Build 0)  -->
<!DOCTYPE svg PUBLIC "-//W3C//DTD SVG 1.1//EN" "http://www.w3.org/Graphics/SVG/1.1/DTD/svg11.dtd">
<svg version="1.1" id="Calque_3" xmlns="http://www.w3.org/2000/svg" xmlns:xlink="http://www.w3.org/1999/xlink" x="0px" y="0px"
	 width="450px" height="240px" viewBox="0 0 450 240" enable-background="new 0 0 450 240" xml:space="preserve">
<g>
	<path fill-rule="evenodd" clip-rule="evenodd" d="M42.413,62.699c3.562,0.746,7.133,1.452,10.68,2.264
		c1.13,0.259,2.196,0.797,3.291,1.207c-0.054,0.253-0.107,0.505-0.16,0.757c-0.895-0.071-1.8-0.074-2.682-0.221
		c-8.256-1.37-16.571-1.93-24.69,0.34c-4.033,1.128-8.118,2.897-11.511,5.316c-7,4.989-8.883,12.968-5.696,20.971
		c2.141,5.377,5.789,9.546,10.374,13c5.055,3.808,10.134,7.595,15.005,11.629c2.171,1.798,4.083,4.017,5.726,6.323
		c4.465,6.259,4.072,12.813-0.972,18.609c-1.754,2.017-3.753,3.815-5.587,5.763c-3.903,4.147-3.948,7.434-0.145,11.717
		c1.272,1.431,2.665,2.756,4.002,4.129c-0.108,0.2-0.216,0.4-0.324,0.601c-0.971-0.21-2.003-0.271-2.903-0.649
		c-16.182-6.776-27.675-18.269-34.123-34.584c-1.218-3.083-1.393-6.579-2.049-9.883c0-5.531,0-11.065,0-16.597
		c0.18-0.953,0.42-1.899,0.531-2.859c0.855-7.47,2.479-14.719,5.909-21.483c4.21-8.306,10.792-13.507,19.948-15.396
		c1.383-0.285,2.754-0.634,4.13-0.953C34.917,62.699,38.665,62.699,42.413,62.699z"/>
	<path fill-rule="evenodd" clip-rule="evenodd" d="M449.86,173.527c-1.075,0.303-2.149,0.856-3.227,0.862
		c-13.11,0.061-26.224,0-39.335,0.075c-2.48,0.016-3.507-0.731-3.482-3.372c0.103-12.042,0.089-24.083,0.007-36.123
		c-0.017-2.382,0.68-3.32,3.201-3.303c13.111,0.099,26.224,0.097,39.335,0c2.348-0.016,3.127,0.718,3.07,3.063
		c-0.183,7.794,0.87,6.637-6.681,6.688c-7.58,0.05-15.164,0.09-22.743-0.033c-2.503-0.038-3.274,0.915-3.257,3.303
		c0.017,2.294,0.824,3.182,3.157,3.142c6.332-0.103,12.667,0.03,18.998-0.069c2.183-0.035,3.029,0.682,2.983,2.923
		c-0.149,7.436,0.869,6.714-6.737,6.718c-5.174,0.002-10.35,0.1-15.519-0.043c-2.602-0.069-2.856,1.293-2.872,3.35
		c-0.016,2.14,0.442,3.291,2.965,3.259c8.919-0.12,17.839-0.064,26.759-0.023c1.127,0.004,2.251,0.315,3.377,0.483
		C449.86,167.461,449.86,170.496,449.86,173.527z"/>
	<path fill-rule="evenodd" clip-rule="evenodd" d="M57.939,178.348c-2.781-1.319-5.754-2.35-8.294-4.033
		c-2.963-1.966-4.598-5.094-5.763-9.396c13.741,6.744,27.125,7.911,40.536,0.527c-4.774,6.363-10.773,10.698-18.566,12.337
		c-0.683,0.143-1.349,0.374-2.023,0.564C61.866,178.348,59.903,178.348,57.939,178.348z"/>
	<path fill-rule="evenodd" clip-rule="evenodd" d="M52.963,161.343c1.652-1.938,3.19-3.987,4.978-5.789
		c4.707-4.754,9.594-9.325,14.257-14.117c1.912-1.966,3.519-4.252,5.108-6.501c2.229-3.159,2.108-6.581-0.266-9.424
		c-2.073-2.483-4.551-4.869-7.33-6.463c-4.145-2.378-8.638-4.208-13.111-5.944c-10.242-3.975-20.329-8.272-29.357-14.604
		c-3.246-2.277-6.335-4.992-8.856-8.035c-3.696-4.464-2.928-8.662,1.681-12.248c4.418-3.438,9.628-5.177,15.065-5.75
		c18.421-1.943,36.3,0.591,53.438,7.605c3.3,1.351,6.411,3.566,9.075,5.974c3.96,3.578,3.963,7.943,0.665,12.18
		c-3.284,4.217-7.989,5.558-12.953,6.042c-8.053,0.785-15.826-0.485-23.16-3.993c-1.354-0.647-2.672-1.465-3.821-2.425
		c-4.062-3.395-3.885-7.174,0.7-9.899c2.178-1.296,4.806-1.833,7.229-2.715c0.145,0.299,0.289,0.595,0.433,0.893
		c-1.004,0.933-2.074,1.806-3.003,2.809c-2.685,2.896-2.226,5.884,1.26,7.604c4.64,2.29,9.484,2.384,14.279,0.609
		c3.458-1.281,4.624-4.131,2.396-6.991c-2.066-2.656-4.7-5.392-7.693-6.71c-12.661-5.575-25.302-5.172-37.471,1.742
		c-2.376,1.351-5.157,2.913-5.012,6.083c0.145,3.164,3.016,4.667,5.54,5.602c8.258,3.057,16.639,5.785,24.972,8.642
		c7.241,2.483,14.582,4.719,21.681,7.56c3.662,1.466,7.132,3.701,10.257,6.141c4.458,3.482,5.19,7.472,2.835,12.625
		c-2.881,6.302-7.733,10.974-13.536,14.421c-7.65,4.545-15.613,8.564-23.456,12.782c-2.004,1.078-4.061,2.055-6.093,3.079
		C53.45,161.866,53.206,161.604,52.963,161.343z"/>
	<path fill-rule="evenodd" clip-rule="evenodd" d="M216.891,99.469c6.219,2.257,6.563,6.307,5.857,13.475
		c-0.444,4.528-4.386,7.991-9.281,8.072c-12.842,0.213-25.689,0.146-38.536,0.193c-1.657,0.007-2.42-0.765-2.417-2.453
		c0.02-12.578,0.024-25.157-0.008-37.736c-0.005-1.839,0.847-2.609,2.591-2.593c12.129,0.107,24.267-0.045,36.384,0.41
		c8.583,0.321,12.78,6.884,10.356,15.154C221.044,96.692,220.142,97.712,216.891,99.469z M197.212,103.715c0-0.006,0-0.013,0-0.019
		c-2.139,0-4.277,0-6.416-0.001c-5.635-0.004-5.647,0.008-5.278,5.675c0.006,0.088-0.038,0.215,0.007,0.261
		c0.713,0.718,1.428,2.029,2.161,2.041c6.23,0.098,12.469,0.091,18.694-0.159c3.169-0.128,4.249-1.461,4.146-4.047
		c-0.1-2.551-1.29-3.619-4.494-3.728C203.095,103.637,200.152,103.715,197.212,103.715z M196.975,87.156c0-0.004,0-0.006,0-0.01
		c-2.044,0-4.088,0.001-6.133,0c-5.563-0.001-5.51-0.003-5.355,5.591c0.053,1.928,0.772,2.695,2.725,2.648
		c3.909-0.093,7.822-0.012,11.733-0.034c2.041-0.012,4.109,0.091,6.118-0.19c2.507-0.353,3.557-2.004,3.342-4.585
		c-0.201-2.408-1.595-3.422-3.896-3.42C202.664,87.156,199.819,87.156,196.975,87.156z"/>
	<path fill-rule="evenodd" clip-rule="evenodd" d="M63.574,162.726c1.583-0.661,3.148-1.37,4.754-1.969
		c4.004-1.49,8.114-2.73,12.025-4.432c9.497-4.127,17.042-10.617,22.543-19.426c5.365-8.589,9.145-17.869,12.431-27.428
		c1.66-4.828,3.912-9.612,6.755-13.838c5.209-7.736,17.692-14.087,26.915-14.4c-0.225,0.447-0.314,0.895-0.587,1.131
		c-7.56,6.559-11.68,15.156-14.509,24.503c-1.806,5.968-3.599,11.941-5.263,17.949c-6.002,21.676-20.545,33.579-42.43,36.796
		c-7.127,1.046-14.374,1.274-21.567,1.862c-0.297,0.022-0.607-0.11-0.911-0.168C63.679,163.112,63.626,162.918,63.574,162.726z"/>
	<path fill-rule="evenodd" clip-rule="evenodd" d="M334.85,97.362c-0.085,1.794-0.166,2.737-0.168,3.681
		c-0.013,5.794-0.046,11.59,0.016,17.383c0.021,1.919-0.745,2.817-2.666,2.794c-2.675-0.028-5.349-0.025-8.022-0.006
		c-1.676,0.011-2.425-0.791-2.424-2.456c0.012-12.57,0.013-25.139-0.006-37.711c-0.002-1.77,0.763-2.645,2.563-2.629
		c2.763,0.022,5.551-0.208,8.279,0.1c1.341,0.15,2.898,0.979,3.797,1.996c5.658,6.412,11.175,12.951,16.693,19.486
		c0.615,0.729,0.94,1.702,1.401,2.561c0.408-0.255,0.815-0.51,1.224-0.765c0.086-0.899,0.242-1.797,0.247-2.695
		c0.023-5.795,0.086-11.591-0.022-17.384c-0.046-2.422,0.851-3.437,3.284-3.315c2.311,0.114,4.635,0.058,6.951,0.014
		c1.979-0.037,2.938,0.758,2.931,2.85c-0.042,12.392-0.041,24.784-0.004,37.174c0.005,1.917-0.781,2.693-2.687,2.797
		c-9.864,0.542-9.844,0.552-16.303-7.024c-4.278-5.017-8.619-9.981-12.951-14.955C336.545,98.757,335.982,98.363,334.85,97.362z"/>
	<path fill-rule="evenodd" clip-rule="evenodd" d="M225.655,130.81c4.97,0.316,9.979,0.353,14.902,1.016
		c5.839,0.785,9.764,4.908,10.08,10.762c0.361,6.653,0.436,13.359,0.066,20.013c-0.373,6.752-3.777,11.049-10.418,11.5
		c-9.988,0.678-20.091,0.553-30.087-0.108c-5.885-0.385-9.401-4.709-9.814-10.594c-0.437-6.209-0.672-12.485-0.277-18.685
		c0.582-9.115,5.103-13.129,14.3-13.472c3.739-0.139,7.488-0.021,11.232-0.021C225.644,131.083,225.649,130.946,225.655,130.81z
		 M225.598,140.281c0,0.01,0,0.02,0,0.027c-2.142,0-4.29-0.122-6.421,0.028c-3.293,0.231-5.304,1.772-5.519,5.069
		c-0.32,4.955-0.154,9.952,0.022,14.923c0.084,2.446,1.741,4.06,4.134,4.145c5.149,0.182,10.312,0.188,15.458-0.014
		c2.389-0.096,3.988-1.764,4.07-4.208c0.162-4.888,0.36-9.797,0.029-14.661c-0.243-3.58-2.246-5.067-5.89-5.288
		C229.528,140.185,227.561,140.281,225.598,140.281z"/>
	<path fill-rule="evenodd" clip-rule="evenodd" d="M393.428,110.865c9.253,0,18.507-0.003,27.759,0.001
		c3.394,0.002,3.536,0.109,3.501,3.431c-0.083,7.836,1.143,6.886-6.984,6.909c-13.729,0.035-27.46,0.013-41.189,0.007
		c-3.611-0.003-3.4-0.175-3.813-3.769c-0.559-4.873,1.323-7.821,5.394-10.449c8.071-5.21,15.79-10.969,23.648-16.51
		c0.693-0.489,1.341-1.043,2.469-1.926c-1.313-0.083-2.059-0.17-2.806-0.171c-8.38-0.01-16.761-0.074-25.142,0.035
		c-2.487,0.032-3.301-0.937-3.266-3.313c0.107-7.294-0.722-6.687,6.54-6.684c13.373,0.004,26.746-0.002,40.119,0.002
		c3.543,0.001,3.851,0.309,3.863,3.753c0.003,1.07-0.078,2.146,0.018,3.207c0.211,2.383-0.771,4.001-2.729,5.366
		c-8.544,5.956-17.021,12.011-25.518,18.037c-0.705,0.501-1.386,1.039-2.078,1.56C393.285,110.521,393.357,110.692,393.428,110.865z
		"/>
	<path fill-rule="evenodd" clip-rule="evenodd" d="M294.322,121.214c-6.51,0-13.023-0.065-19.532,0.034
		c-2.421,0.037-3.265-0.808-3.244-3.278c0.101-12.129,0.091-24.261,0.008-36.39c-0.016-2.319,0.789-3.19,3.097-3.179
		c13.112,0.054,26.225,0.054,39.334,0.002c2.227-0.011,3.228,0.671,3.177,3.078c-0.164,7.769,0.839,6.878-6.827,6.895
		c-7.491,0.018-14.984,0.072-22.477-0.037c-2.299-0.032-3.411,0.443-3.417,3.07c-0.006,2.721,1.158,3.329,3.576,3.287
		c6.152-0.106,12.308,0.038,18.461-0.072c2.27-0.041,3.209,0.635,3.151,3.037c-0.175,7.219,0.885,6.568-6.612,6.586
		c-5.173,0.012-10.349,0.11-15.519-0.041c-2.686-0.078-3.038,1.244-3.03,3.464c0.008,2.213,0.615,3.257,3.044,3.232
		c8.918-0.094,17.839,0.036,26.756-0.083c2.488-0.034,3.533,0.598,3.442,3.28c-0.275,8.178,1.236,7.037-7.064,7.108
		C305.205,121.253,299.765,121.216,294.322,121.214z"/>
	<path fill-rule="evenodd" clip-rule="evenodd" d="M376.776,174.429c-6.599,0-13.199-0.062-19.796,0.032
		c-2.324,0.033-3.122-0.834-3.106-3.148c0.078-12.216,0.073-24.434,0.003-36.65c-0.012-2.133,0.563-3.009,2.867-2.993
		c13.196,0.089,26.395,0.083,39.592,0.008c2.307-0.014,3.186,0.761,3.153,3.095c-0.101,7.559,0.562,6.641-6.536,6.655
		c-7.669,0.016-15.339,0.087-23.006-0.046c-2.545-0.044-3.196,0.925-3.173,3.311c0.023,2.29,0.708,3.186,3.081,3.143
		c6.329-0.117,12.663,0.021,18.993-0.074c2.161-0.033,3.066,0.689,3.05,2.917c-0.059,7.544,0.496,6.722-6.505,6.724
		c-5.262,0.002-10.525,0.107-15.781-0.049c-2.634-0.078-2.812,1.273-2.817,3.326c-0.006,2.082,0.229,3.33,2.844,3.293
		c9.006-0.133,18.014,0.018,27.02-0.096c2.604-0.033,3.441,0.947,3.383,3.467c-0.179,7.749,1.005,7.081-6.946,7.087
		C387.655,174.429,382.215,174.429,376.776,174.429z"/>
	<path fill-rule="evenodd" clip-rule="evenodd" d="M171.331,130.696c5.654,0.539,11.376,0.703,16.943,1.724
		c5.458,1,8.047,4.797,8.181,10.357c0.045,1.896-0.573,3.091-2.764,2.956c-1.599-0.097-3.215-0.115-4.811,0.004
		c-2.82,0.214-5.158,0.071-6.175-3.386c-0.284-0.965-2.374-1.9-3.682-1.968c-4.444-0.235-8.912-0.168-13.365-0.037
		c-3.708,0.106-5.822,1.993-6.017,5.768c-0.239,4.614-0.115,9.252,0.035,13.874c0.083,2.525,1.598,4.374,4.125,4.466
		c5.408,0.197,10.844,0.241,16.233-0.147c1.311-0.095,2.451-2.144,3.729-3.225c0.843-0.712,1.747-1.766,2.701-1.858
		c2.649-0.256,5.34-0.065,8.015-0.096c1.769-0.018,2.552,0.813,2.673,2.572c0.503,7.284-3.499,12.519-10.826,12.83
		c-9.331,0.397-18.707,0.397-28.035-0.052c-7.534-0.36-11.764-5.173-12.049-12.726c-0.195-5.163-0.102-10.34-0.083-15.509
		c0.038-9.846,4.555-14.571,14.431-14.985c3.559-0.148,7.13-0.023,10.695-0.023C171.3,131.057,171.315,130.875,171.331,130.696z"/>
	<path fill-rule="evenodd" clip-rule="evenodd" d="M327.379,131.715c6.602,0,13.205,0.056,19.806-0.034
		c2.093-0.031,2.9,0.765,2.882,2.806c-0.075,8.311,0.571,6.867-6.755,6.93c-7.582,0.063-15.167,0.104-22.747-0.037
		c-2.598-0.048-3.137,1.006-3.139,3.344c-0.002,2.33,0.756,3.152,3.099,3.111c6.331-0.115,12.668,0.037,19-0.078
		c2.264-0.043,2.953,0.814,2.92,2.982c-0.121,7.521,0.655,6.635-6.534,6.658c-5.264,0.018-10.528,0.065-15.791-0.025
		c-1.979-0.034-2.701,0.699-2.652,2.66c0.095,3.834-0.014,7.674,0.045,11.509c0.032,2.023-0.8,2.96-2.863,2.906
		c-2.497-0.065-4.997-0.059-7.494,0c-1.952,0.042-2.683-0.859-2.677-2.768c0.035-12.4,0.042-24.802-0.016-37.202
		c-0.008-2.08,0.757-2.825,2.846-2.796C313.997,131.771,320.688,131.715,327.379,131.715z"/>
	<path fill-rule="evenodd" clip-rule="evenodd" d="M277.912,131.713c6.601,0,13.203,0.056,19.802-0.032
		c2.09-0.031,2.857,0.704,2.818,2.798c-0.145,7.998,0.894,6.904-6.716,6.941c-7.492,0.04-14.986,0.084-22.478-0.035
		c-2.473-0.038-3.554,0.612-3.529,3.299c0.023,2.577,1.117,3.178,3.422,3.144c6.154-0.099,12.312,0.046,18.464-0.071
		c2.363-0.045,3.385,0.62,3.332,3.168c-0.145,7.052,0.657,6.497-6.479,6.479c-5.173-0.014-10.351,0.104-15.52-0.051
		c-2.522-0.076-3.284,0.885-3.186,3.288c0.149,3.651-0.038,7.316,0.067,10.97c0.063,2.116-0.843,2.893-2.86,2.837
		c-2.406-0.071-4.817-0.063-7.224-0.002c-1.998,0.05-2.895-0.711-2.884-2.833c0.058-12.397,0.06-24.798-0.002-37.192
		c-0.012-2.161,0.896-2.76,2.901-2.734C264.532,131.76,271.222,131.713,277.912,131.713z"/>
	<path fill-rule="evenodd" clip-rule="evenodd" d="M247.183,121.214c-5.97,0.002-11.942-0.046-17.912,0.028
		c-2.166,0.026-3.049-0.824-3.041-2.998c0.042-12.208,0.04-24.417-0.004-36.626c-0.009-2.224,0.78-3.331,3.133-3.214
		c2.134,0.105,4.276,0.011,6.414,0.023c3.17,0.017,3.576,0.403,3.58,3.499c0.009,8.555,0.097,17.113-0.055,25.665
		c-0.046,2.648,0.871,3.367,3.395,3.322c7.395-0.131,14.794,0.027,22.188-0.092c2.355-0.038,3.269,0.777,3.074,3.095
		c-0.12,1.416-0.132,2.86,0.004,4.274c0.232,2.412-0.883,3.091-3.132,3.056C258.946,121.148,253.065,121.214,247.183,121.214z"/>
	<path fill-rule="evenodd" clip-rule="evenodd" d="M101.49,105.487c1.493-1.483,3.063-2.9,4.464-4.463
		c4.625-5.168,4.667-9.576-0.14-14.604c-2.292-2.398-5.034-4.368-7.456-6.773c5.087,0.837,9.766,2.665,13.622,6.207
		c6.05,5.559,5.472,12.342-1.526,16.612c-2.606,1.59-5.58,2.578-8.387,3.841C101.875,106.033,101.683,105.759,101.49,105.487z"/>
	<path fill-rule="evenodd" clip-rule="evenodd" d="M436.538,89.47c-3.382,0.03-5.919-2.411-5.991-5.763
		c-0.076-3.501,2.438-6.143,5.862-6.164c3.344-0.019,5.953,2.477,6.026,5.763C442.511,86.766,439.954,89.439,436.538,89.47z
		 M436.384,88.423c2.862,0.031,4.905-1.929,4.973-4.771c0.072-2.997-1.979-5.11-4.938-5.086c-2.837,0.023-4.812,2.042-4.817,4.923
		C431.598,86.385,433.544,88.392,436.384,88.423z"/>
	<path fill-rule="evenodd" clip-rule="evenodd" fill="#FFFFFF" d="M439.072,86.948c0-2.008,0.081-3.824-0.064-5.625
		c-0.029-0.382-0.853-0.932-1.363-0.997c-1.173-0.148-2.377-0.048-3.696-0.048c0.148,2.316-0.423,4.488,0.319,6.492
		c0.263-0.011,0.527-0.021,0.789-0.031c0.187-0.801,0.373-1.602,0.737-3.161C436.96,84.775,437.798,85.637,439.072,86.948z"/>
	<path fill-rule="evenodd" clip-rule="evenodd" d="M439.072,86.948c-1.274-1.312-2.112-2.173-3.278-3.37
		c-0.364,1.559-0.551,2.36-0.737,3.161c-0.262,0.01-0.526,0.021-0.789,0.031c-0.742-2.004-0.171-4.176-0.319-6.492
		c1.319,0,2.523-0.1,3.696,0.048c0.511,0.065,1.334,0.614,1.363,0.997C439.153,83.124,439.072,84.94,439.072,86.948z"/>
</g>
</svg>
