<?xml version="1.0" encoding="utf-8"?>
<!-- Generator: Adobe Illustrator 16.0.0, SVG Export Plug-In . SVG Version: 6.00 Build 0)  -->
<!DOCTYPE svg PUBLIC "-//W3C//DTD SVG 1.1//EN" "http://www.w3.org/Graphics/SVG/1.1/DTD/svg11.dtd">
<svg version="1.1" id="Calque_3" xmlns="http://www.w3.org/2000/svg" xmlns:xlink="http://www.w3.org/1999/xlink" x="0px" y="0px"
	 width="450px" height="240px" viewBox="0 0 450 240" enable-background="new 0 0 450 240" xml:space="preserve">
<g>
	<path fill-rule="evenodd" clip-rule="evenodd" d="M75.661,172.648c4.23-1.313,5.458-4.569,6.005-8.6
		c1.55-11.384,3.332-22.734,4.995-34.102c0.389-2.665-0.35-3.875-2.817-4.935c-0.557-0.236-1.156-0.412-1.661-0.734
		c-0.776-0.494-0.708-1.117,0.139-1.426c0.459-0.167,0.969-0.243,1.461-0.268c12.089-0.61,24.184-1.118,36.29-0.643
		c4.748,0.188,9.504,0.564,14.084,1.952c1.886,0.572,3.784,1.307,5.466,2.319c5.047,3.042,5.711,9.305,1.421,13.375
		c-1.258,1.193-2.82,2.143-4.38,2.925c-3.54,1.779-7.405,2.501-11.351,3.272c0.369,0.098,0.74,0.193,1.107,0.297
		c3.498,0.992,7.039,1.856,10.474,3.034c1.526,0.521,2.929,1.55,4.231,2.555c5.297,4.08,4.375,11.324,0.811,14.984
		c-3.106,3.186-7.092,4.606-11.256,5.64c-4.849,1.205-9.8,1.76-14.783,1.77c-12.875,0.027-25.751-0.053-38.627-0.11
		c-0.537-0.003-1.072-0.202-1.608-0.31C75.661,173.313,75.661,172.981,75.661,172.648z M109.159,147.021
		c-1.599,0.134-2.697,0.232-3.796,0.309c-0.724,0.049-1.04,0.395-1.144,1.129c-0.819,5.736-1.713,11.462-2.499,17.2
		c-0.376,2.748,1.109,4.846,3.854,5.262c1.717,0.26,3.528,0.225,5.258,0.006c6.032-0.76,10.15-4.808,11.16-10.778
		c1.063-6.288-1.909-10.912-8.084-12.41C112.205,147.324,110.431,147.207,109.159,147.021z M111.881,124.771
		c-0.001,0.051-0.002,0.1-0.003,0.148c-0.882,0-1.764-0.003-2.646,0.003c-1.155,0.005-1.761,0.478-1.922,1.733
		c-0.683,5.302-1.438,10.598-2.212,15.887c-0.147,1.005,0.19,1.484,1.161,1.546c3.445,0.222,6.845,0.11,10.035-1.444
		c3.145-1.534,5.04-4.03,5.688-7.465c1.04-5.507-1.707-9.467-7.129-10.236C113.873,124.805,112.872,124.825,111.881,124.771z"/>
	<path fill-rule="evenodd" clip-rule="evenodd" d="M374.338,172.319c-5.158,2.23-10.537,2.795-16.059,1.993
		c-4.668-0.679-6.941-3.234-6.559-7.922c0.327-4.006,1.192-7.967,1.828-11.948c0.357-2.236,0.801-4.461,1.063-6.71
		c0.117-1.018,0.021-2.105-0.223-3.102c-0.427-1.748-1.695-2.649-3.462-2.854c-4.37-0.5-8.417,2.435-9.162,6.807
		c-1.123,6.591-2.124,13.2-3.201,19.797c-0.262,1.613,0.236,2.804,1.657,3.635c0.449,0.263,0.821,0.653,1.229,0.986
		c-0.016,0.154-0.03,0.306-0.044,0.456c-0.64,0.151-1.279,0.433-1.92,0.437c-6.854,0.03-13.713,0.021-20.568,0.012
		c-0.329,0-0.679-0.002-0.98-0.11c-0.284-0.101-0.744-0.361-0.73-0.521c0.028-0.313,0.267-0.799,0.52-0.874
		c3.312-0.994,3.857-3.655,4.287-6.582c0.935-6.396,2.051-12.764,3.084-19.144c0.447-2.76,0.385-2.902-2.356-5.957
		c0.659-0.245,1.195-0.56,1.766-0.643c5.412-0.789,10.827-1.548,16.247-2.296c1.832-0.251,2.195,0.141,1.967,1.969
		c-0.072,0.584-0.131,1.17-0.239,2.136c0.972-0.475,1.648-0.771,2.294-1.129c6.238-3.478,12.84-4.66,19.835-2.988
		c4.406,1.053,6.778,3.721,6.743,8.215c-0.027,3.508-0.684,7.018-1.17,10.514c-0.379,2.733-0.934,5.445-1.385,8.17
		c-0.091,0.54-0.103,1.1-0.101,1.652c0.009,2.547,0.983,3.752,3.434,4.338c0.746,0.179,1.472,0.443,2.206,0.667
		C374.338,171.655,374.338,171.986,374.338,172.319z"/>
	<path fill-rule="evenodd" clip-rule="evenodd" d="M297.677,239.686c-0.895-0.263-1.79-0.52-2.682-0.787
		c-9.04-2.743-8.624-12.036-3.919-16.56c3.019-2.902,6.746-4.485,10.754-5.175c4.283-0.733,8.647-1.017,12.979-1.485
		c3.965-0.427,3.015,0.474,3.707-3.479c0.17-0.969,0.14-1.985,0.114-2.976c-0.08-3.007-1.803-4.811-4.829-5.046
		c-5.295-0.41-9.529,1.871-13.272,5.328c-0.771,0.711-1.44,1.53-2.207,2.244c-0.885,0.827-1.434,0.755-1.843-0.394
		c-0.556-1.552-0.953-3.165-1.358-4.77c-0.256-1,0.359-1.611,1.203-1.893c1.828-0.611,3.655-1.278,5.538-1.656
		c7.817-1.569,15.677-1.897,23.519-0.215c1.701,0.364,3.39,1.044,4.925,1.876c3.066,1.661,4.757,4.391,4.598,7.867
		c-0.149,3.293-0.755,6.566-1.181,9.845c-0.388,3.005-0.944,6-1.158,9.017c-0.188,2.666,0.883,3.784,3.441,4.475
		c0.728,0.196,1.379,0.671,2.067,1.019c-0.69,0.479-1.32,1.175-2.083,1.392c-2.011,0.569-4.076,0.929-6.121,1.372
		c-2.544,0-5.088,0-7.634,0c-2.39-0.808-4.927-1.354-6.405-3.711c-1.188,0.611-2.188,1.199-3.246,1.645
		c-1.114,0.47-2.275,0.843-3.437,1.187c-1.153,0.34-2.336,0.591-3.506,0.88C302.986,239.686,300.331,239.686,297.677,239.686z
		 M317.622,218.092c-1.101,0-1.921-0.03-2.739,0.008c-7.794,0.34-12.768,7.071-10.826,14.65c0.396,1.542,1.236,2.795,2.835,3.178
		c4.435,1.06,8.361-1.94,8.703-5.298c0.105-1.04,0.359-2.065,0.525-3.101C316.618,224.429,317.107,221.329,317.622,218.092z"/>
	<path fill-rule="evenodd" clip-rule="evenodd" fill="none" d="M305.641,239.686c1.17-0.289,2.353-0.54,3.506-0.88
		c1.161-0.344,2.322-0.717,3.437-1.187c1.059-0.445,2.059-1.033,3.246-1.645c1.479,2.356,4.016,2.903,6.405,3.711
		C316.703,239.686,311.174,239.686,305.641,239.686z"/>
	<path fill-rule="evenodd" clip-rule="evenodd" d="M202.279,67.424c-1.486-3.266-5.378-4.061-8.027-1.948
		c-2.186,1.744-3.083,4.17-3.257,6.837c-0.474,7.281,5.526,11.823,11.87,10.021c2.968-0.844,4.855-2.861,5.928-5.774
		c3.129-8.502-1.463-16.606-10.205-17.897c-5.501-0.812-12.016,3.082-13.942,8.595c-1.724,4.93-1.671,9.917,0.678,14.681
		c3.184,6.454,8.7,9.237,15.801,8.509c8.564-0.876,14.067-5.877,15.625-14.463c1.714-9.446-0.484-18.11-6.357-25.745
		c-2.092-2.72-4.809-4.515-8.362-4.848c-2.807-0.263-3.428,0.212-3.213,3.033c0.099,1.305,0.505,2.586,0.818,4.103
		c-4.67-1.084-9.191-0.715-13.578,1.534c0.524-2.444,1.265-4.715,1.455-7.032c0.341-4.174,0.499-8.378,0.454-12.566
		c-0.033-3.195-0.498-6.384-0.771-9.576c-0.015-0.165-0.026-0.331-0.052-0.495c-0.45-2.943-1.111-3.501-4.329-3.294
		c1.317-1.53,2.34-2.977,3.614-4.152c6.204-5.729,13.597-6.972,21.63-5.428c4.893,0.94,9.187,3.092,12.712,6.692
		c6.84,6.985,7.475,19.495-4.261,25.093c-0.194,0.093-0.367,0.228-0.428,0.266c2.151,2.314,4.487,4.454,6.376,6.933
		c5.935,7.788,7.842,16.563,5.776,26.15c-1.031,4.783-3.383,8.877-6.949,12.212c-6.319,5.907-13.822,9.119-22.495,9.12
		c-11.581,0.002-20.819-8.752-21.999-20.272c-0.93-9.073,2.172-16.179,9.732-21.214c7.875-5.245,18.384-3.491,24.311,3.901
		c2.048,2.554,2.904,5.563,3.183,8.752c0.248,2.831-0.107,5.616-0.788,8.378c-1.971,7.996-10.049,12.357-18.563,8.692
		c-4.907-2.112-7.306-6.07-7.815-11.24c-0.326-3.308,0.104-6.515,1.873-9.435c2.219-3.664,5.991-5.592,9.725-4.955
		c4.675,0.797,7.638,3.583,8.583,8.062c0.504,2.385,0.398,4.726-0.515,7.004c-1.35,3.369-3.869,4.852-7.458,4.403
		c-2.966-0.369-5.583-2.962-5.846-6.137c-0.124-1.497,0.011-3.141,0.52-4.539c1.2-3.292,4.379-4.307,7.438-2.609
		C201.447,66.929,201.716,67.094,202.279,67.424z M211.292,29.262c-0.66-2.101-0.996-4.17-1.931-5.919
		c-1.578-2.949-5.048-3.168-6.972-0.623c-2.87,3.798-3.99,8.076-3.227,12.793c0.343,2.119,2.01,3.896,3.691,3.95
		c2.761,0.089,5.11-0.889,6.273-3.464C210.085,33.873,210.581,31.539,211.292,29.262z"/>
	<path fill-rule="evenodd" clip-rule="evenodd" d="M246.35,92.33c-6.138-2.888-11.739-2.261-17.33,1.361
		c0.367-2.174,0.809-4.043,0.976-5.937c0.414-4.674,0.906-9.354,0.991-14.039c0.126-6.956,0.066-13.922-0.161-20.875
		c-0.365-11.168-1.188-22.298-4.165-33.146c-0.359-1.312-0.71-2.625-1.082-3.997c1.111,0,2.046-0.087,2.96,0.015
		c6.148,0.681,12.25-0.045,18.364-0.532c3.595-0.286,7.171-0.072,10.711,0.69c2.382,0.514,4.401,1.726,6.36,3.1
		c4.313,3.03,7.925,6.688,10.497,11.334c4.712,8.504,2.402,18.253-2.389,24.317c-2.949,3.731-7.035,5.491-11.683,5.806
		c-2.127,0.145-4.333,0.015-6.424-0.395c-6.21-1.213-9.27-5.586-10.675-11.354c-0.771-3.169-0.582-6.374,0.302-9.515
		c1.482-5.259,6.438-8.557,11.439-7.645c3.892,0.71,6.633,3.779,7.011,8.353c0.157,1.87-0.101,3.896-0.686,5.682
		c-1.254,3.82-5.166,5.725-9.073,4.737c-1.982-0.501-3.369-1.681-3.872-3.688c-0.71-2.819-0.378-5.507,1.431-7.868
		c1.342-1.75,2.927-2.107,4.827-1.223c1.655,0.769,2.305,2.186,1.956,4.282c-0.08,0.482-0.164,0.964-0.245,1.445
		c0.118,0.075,0.235,0.148,0.354,0.222c0.397-0.625,0.924-1.203,1.172-1.883c0.713-1.973-0.126-4.515-1.812-5.806
		c-1.635-1.25-4.133-1.332-5.895-0.029c-3.151,2.331-3.88,5.708-3.482,9.315c0.345,3.143,1.788,5.746,5.107,6.679
		c3.585,1.007,7.628-0.466,9.896-3.472c1.908-2.531,2.741-5.474,2.681-8.557c-0.138-7.091-3.078-12.845-8.988-16.841
		c-1.499-1.014-3.405-1.635-5.207-1.948c-4.306-0.747-7.726,1.791-8.246,6.127c-0.36,3.007-0.369,6.063-0.416,9.099
		c-0.102,6.52-0.307,13.044-0.132,19.559c0.188,7.007,0.475,14.036,1.264,20.993c0.527,4.63,2.011,9.151,3.075,13.72
		C245.887,90.945,246.081,91.458,246.35,92.33z"/>
	<path fill-rule="evenodd" clip-rule="evenodd" d="M140.702,216.219c-0.438,2.915-0.879,5.742-1.282,8.577
		c-0.326,2.296-0.596,4.6-0.903,6.898c-0.373,2.786,0.172,3.844,2.625,5.304c0.464,0.275,0.774,0.811,1.156,1.227
		c-0.575,0.242-1.143,0.679-1.724,0.696c-2.43,0.081-4.864,0.04-7.296,0.04c-6.19,0-12.381,0.025-18.571-0.034
		c-0.727-0.006-1.45-0.468-2.174-0.719c0.57-0.449,1.074-1.068,1.721-1.314c2.41-0.923,3.457-2.754,3.84-5.164
		c1.206-7.581,2.463-15.154,3.651-22.737c0.692-4.418,1.293-8.85,1.923-13.28c0.085-0.602,0.109-1.209,0.155-1.816
		c0.127-1.704-0.619-2.866-2.195-3.504c-0.512-0.207-1.066-0.343-1.527-0.628c-0.384-0.241-0.66-0.654-0.982-0.991
		c0.422-0.285,0.812-0.723,1.273-0.816c1.022-0.212,2.08-0.33,3.125-0.345c9.777-0.136,19.555-0.36,29.331-0.31
		c5.136,0.03,10.265,0.633,15.19,2.256c1.51,0.5,3.021,1.112,4.386,1.923c5.392,3.197,6.86,9.406,3.588,14.784
		c-1.602,2.636-3.932,4.452-6.616,5.861c-4.333,2.275-9,3.377-13.839,3.646c-4.575,0.25-9.165,0.25-13.748,0.366
		C141.537,216.145,141.266,216.176,140.702,216.219z M141.239,213.034c2.744,0.406,5.149,0.266,7.507-0.458
		c6.813-2.098,10.689-10.549,7.861-17.106c-0.751-1.744-1.976-3.042-3.65-3.925c-2.062-1.088-4.272-1.441-6.574-1.363
		c-1.578,0.054-1.771,0.225-2.008,1.796c-0.636,4.206-1.282,8.407-1.911,12.611C142.05,207.36,141.659,210.136,141.239,213.034z"/>
	<path fill-rule="evenodd" clip-rule="evenodd" d="M292.25,174.654c-4.805-0.012-9.461-0.79-13.88-2.755
		c-12.903-5.737-12.067-20.228-3.875-27.249c4.192-3.595,9.097-5.612,14.438-6.66c6.916-1.354,13.755-1.291,20.351,1.536
		c3.8,1.632,6.956,4.092,9.024,7.749c3.019,5.341,2.175,12.431-2.089,17.668c-3.563,4.377-8.289,6.962-13.652,8.3
		c-3.355,0.833-6.833,1.176-10.256,1.739C292.29,174.874,292.271,174.764,292.25,174.654z M285.678,161.727
		c0.058,1.069,0.08,2.448,0.221,3.818c0.081,0.818,0.293,1.635,0.548,2.418c1.025,3.136,3.078,4.532,6.363,4.407
		c2.268-0.087,4.085-1.127,5.325-2.92c1.023-1.48,1.91-3.119,2.51-4.81c1.865-5.266,2.368-10.76,2.239-16.311
		c-0.033-1.419-0.28-2.86-0.624-4.248c-1.488-6.014-7.549-5.887-10.438-2.94c-1.247,1.272-2.331,2.832-3.066,4.45
		C286.484,150.601,285.832,155.966,285.678,161.727z"/>
	<path fill-rule="evenodd" clip-rule="evenodd" d="M169.45,174.652c-4.372-0.04-9.352-0.851-13.995-3.201
		c-5.46-2.762-8.735-7.053-8.961-13.303c-0.188-5.217,1.771-9.609,5.593-13.142c4.147-3.835,9.177-5.877,14.629-6.979
		c6.276-1.271,12.561-1.426,18.639,0.826c2.448,0.908,4.879,2.189,6.913,3.813c6.458,5.153,7.5,12.645,3.564,19.785
		c-2.755,4.996-7.245,7.943-12.448,9.906C179.149,173.955,174.745,174.647,169.45,174.652z M180.941,149.356
		c-0.142-1.065-0.262-3.173-0.722-5.201c-1.359-5.979-7.487-6.098-10.504-2.938c-1.409,1.476-2.552,3.345-3.355,5.231
		c-1.97,4.627-2.613,9.572-2.681,14.565c-0.028,2.131,0.09,4.338,0.61,6.391c1.338,5.277,7.087,6.808,10.964,2.938
		c1.178-1.175,2.124-2.709,2.791-4.242C180.211,161.103,180.673,155.761,180.941,149.356z"/>
	<path fill-rule="evenodd" clip-rule="evenodd" d="M222.482,137.077c6.105,0.156,10.899,0.451,15.586,1.652
		c3.91,1.003,4.313,1.727,3.083,5.559c-0.423,1.31-0.967,2.587-1.546,3.834c-0.185,0.4-0.654,0.896-1.016,0.914
		c-0.312,0.013-0.724-0.535-0.973-0.916c-0.786-1.199-1.428-2.499-2.279-3.643c-4.006-5.404-10.798-5.729-14.92-4.471
		c-0.625,0.192-1.246,0.483-1.79,0.846c-2.18,1.442-2.365,4.203-0.229,5.688c1.334,0.931,2.911,1.586,4.466,2.096
		c3.411,1.122,6.941,1.888,10.293,3.148c2.183,0.822,4.366,1.981,6.141,3.472c3.413,2.862,3.887,7.454,1.558,11.271
		c-1.469,2.408-3.669,3.945-6.173,5.096c-3.304,1.519-6.826,2.229-10.407,2.593c-7.48,0.757-14.902,0.418-22.187-1.583
		c-1.375-0.378-2.691-0.982-4.014-1.535c-1-0.417-1.514-1.283-1.179-2.281c0.753-2.232,1.514-4.49,2.575-6.584
		c0.77-1.523,1.622-1.336,2.451,0.162c0.802,1.447,1.596,2.914,2.567,4.246c2.412,3.306,5.787,5.166,9.791,5.576
		c2.272,0.232,4.626-0.021,6.911-0.318c1.027-0.131,2.096-0.751,2.93-1.417c1.923-1.535,1.939-4.092-0.029-5.548
		c-1.264-0.936-2.755-1.647-4.244-2.177c-2.807-1-5.728-1.684-8.523-2.713c-2.215-0.814-4.463-1.716-6.436-2.986
		c-5.921-3.809-6.026-11.212-0.333-15.366c3.119-2.28,6.734-3.314,10.476-3.865C217.917,137.398,220.846,137.233,222.482,137.077z"
		/>
	<path fill-rule="evenodd" clip-rule="evenodd" d="M217.938,238.958c-5.693,0-11.386,0-17.08,0c-0.333,0-0.664,0.009-0.995,0
		c-0.935-0.021-1.998,0.119-2.483-0.91c-0.548-1.16,0.425-1.846,1.088-2.538c3.44-3.591,6.924-7.143,10.365-10.731
		c4.818-5.027,9.611-10.074,14.412-15.116c0.343-0.36,0.717-0.709,0.969-1.13c0.384-0.632,0.672-1.32,1-1.984
		c-0.777-0.33-1.536-0.884-2.338-0.955c-3.452-0.302-6.743,0.487-9.718,2.191c-2.339,1.337-4.495,2.996-6.724,4.521
		c-0.41,0.28-0.736,0.726-1.178,0.899c-0.406,0.159-0.988,0.199-1.353,0.015c-0.205-0.104-0.287-0.833-0.15-1.171
		c1.06-2.608,2.136-5.215,3.337-7.759c0.225-0.479,0.998-0.808,1.583-0.97c0.619-0.173,1.316-0.075,1.979-0.075
		c10.833-0.003,21.667-0.007,32.501,0.002c0.661,0,1.334-0.009,1.98,0.103c1.589,0.271,2.104,1.215,1.259,2.608
		c-0.739,1.215-1.669,2.339-2.64,3.388c-7.034,7.568-14.099,15.105-21.151,22.659c-0.604,0.646-1.214,1.29-1.753,1.99
		c-0.874,1.136-0.581,1.995,0.858,2.212c1.02,0.156,2.104,0.135,3.127-0.022c6.192-0.961,11.172-4.259,15.751-8.304
		c0.492-0.435,0.984-0.919,1.564-1.204c0.87-0.43,1.41,0.021,1.257,0.979c-0.05,0.322-0.167,0.646-0.313,0.939
		c-1.465,2.969-2.955,5.929-4.412,8.902c-0.557,1.137-1.417,1.499-2.672,1.484C229.989,238.933,223.964,238.958,217.938,238.958z"/>
	<path fill-rule="evenodd" clip-rule="evenodd" d="M261.051,239.017c-5.75,0-11.502,0-17.255,0c-0.387,0-0.801,0.089-1.154-0.021
		c-0.693-0.217-1.688-0.385-1.925-0.879c-0.23-0.48,0.154-1.48,0.575-2.006c0.996-1.251,2.171-2.356,3.28-3.515
		c7.452-7.788,14.908-15.574,22.356-23.366c0.38-0.4,0.752-0.815,1.063-1.27c0.805-1.176,0.575-2.002-0.803-2.082
		c-2.017-0.119-4.103-0.135-6.071,0.243c-4.118,0.794-7.521,3.105-10.743,5.683c-0.646,0.519-1.254,1.102-1.959,1.522
		c-0.316,0.189-0.95,0.211-1.212,0.01c-0.247-0.186-0.369-0.842-0.239-1.163c1.059-2.614,2.146-5.218,3.333-7.772
		c0.207-0.443,0.895-0.748,1.423-0.937c0.446-0.16,0.985-0.065,1.482-0.065c11.171-0.002,22.343-0.014,33.513,0.014
		c1.104,0.003,2.513-0.418,3.113,0.927c0.591,1.322-0.437,2.347-1.219,3.215c-3.558,3.939-7.181,7.816-10.793,11.703
		c-4.33,4.657-8.692,9.282-12.992,13.965c-0.557,0.605-1.285,1.581-1.135,2.19c0.28,1.14,1.575,0.941,2.557,0.953
		c3.36,0.047,6.492-0.96,9.303-2.64c2.878-1.719,5.52-3.835,8.257-5.788c0.779-0.555,1.518-1.804,2.501-1.083
		c1.002,0.733,0.037,1.845-0.352,2.669c-1.271,2.697-2.663,5.339-3.998,8.007c-0.554,1.107-1.373,1.529-2.657,1.515
		C273.22,238.98,267.134,239.017,261.051,239.017z"/>
	<path fill-rule="evenodd" clip-rule="evenodd" d="M267.149,138.142c1.188,0,2.172-0.007,3.154,0
		c0.497,0.003,1.064-0.124,1.476,0.07c0.52,0.248,1.238,0.739,1.27,1.171c0.035,0.448-0.579,1.27-1.03,1.367
		c-1.227,0.263-2.518,0.311-3.778,0.286c-1.126-0.019-1.639,0.262-1.82,1.513c-1.063,7.327-2.234,14.638-3.358,21.953
		c-0.075,0.489-0.114,0.991-0.101,1.486c0.073,2.609,1.13,3.808,3.717,4.257c0.814,0.14,1.633,0.268,2.445,0.426
		c0.141,0.027,0.259,0.183,0.682,0.492c-0.523,0.44-0.906,0.969-1.419,1.164c-5.284,1.987-10.731,2.693-16.274,1.457
		c-4.479-0.995-6.85-4.193-6.297-8.752c0.648-5.366,1.688-10.689,2.569-16.029c0.422-2.549,0.873-5.093,1.352-7.894
		c-1.245,0-2.282,0.021-3.314-0.007c-0.733-0.022-1.548-0.1-1.634-1.035c-0.085-0.916,0.688-1.199,1.395-1.364
		c1.128-0.268,2.299-0.368,3.408-0.684c6.833-1.944,12.652-5.453,17.021-11.162c0.134-0.175,0.233-0.432,0.411-0.51
		c0.471-0.202,0.998-0.483,1.454-0.413c0.211,0.029,0.483,0.826,0.432,1.239c-0.245,1.972-0.587,3.932-0.905,5.896
		C267.745,134.647,267.472,136.222,267.149,138.142z"/>
	<path fill-rule="evenodd" clip-rule="evenodd" d="M258.593,80.164c0.852-1.032,0.716-2.107,0.053-3.146
		c-0.86-1.347-2.177-1.836-3.7-1.758c-2.009,0.101-3.816,1.459-4.285,3.127c-0.684,2.43,0.123,5.094,2.009,6.399
		c2.283,1.579,4.787,1.735,7.263,0.663c3.723-1.609,6.249-4.365,7.005-8.428c0.212-1.135,0.044-2.438-0.309-3.553
		c-0.654-2.078-1.668-2.846-3.834-2.684c-5.688,0.424-10.799-4.777-12.479-9.307c-0.029-0.076,0.053-0.192,0.085-0.29
		c12.037,5.469,25.392-1.117,28.138-16.887c0.367,1.705,0.87,3.394,1.078,5.119c1.184,9.774-0.153,19.193-4.433,28.086
		c-2.196,4.566-5.425,8.355-9.906,10.869c-4.326,2.426-8.801,3.173-13.419,0.677c-5.374-2.905-5.84-9.492-3.883-13.263
		c1.547-2.977,5.87-4.609,9.359-3.533c3.031,0.935,4.829,3.934,4.478,7.463c-0.356,3.572-3.792,5.701-7.174,4.446
		c-2.545-0.945-3.597-4.978-1.753-7.011c1.035-1.142,2.432-1.16,3.846-0.756c1.315,0.377,1.828,1.327,1.859,2.615
		C258.599,79.396,258.593,79.78,258.593,80.164z"/>
	<path fill-rule="evenodd" clip-rule="evenodd" d="M196.264,238.583c-0.603,0.128-1.205,0.356-1.808,0.36
		c-7.02,0.023-14.04,0.015-21.06,0.013c-0.331,0-0.696,0.044-0.982-0.081c-0.312-0.132-0.656-0.394-0.773-0.686
		c-0.063-0.154,0.323-0.494,0.514-0.742c0.029-0.038,0.096-0.055,0.148-0.068c2.915-0.842,3.68-3.09,4.077-5.794
		c1.033-7.048,2.228-14.069,3.351-21.104c0.237-1.488-0.156-2.729-1.473-3.601c-0.342-0.224-0.614-0.554-1.186-1.081
		c0.823-0.293,1.336-0.579,1.877-0.652c5.688-0.789,11.38-1.548,17.073-2.304c1.899-0.255,2.161,0.031,1.871,1.91
		c-1.442,9.335-2.856,18.672-4.338,28c-0.32,2.008-0.035,3.612,1.949,4.597c0.315,0.156,0.541,0.494,0.808,0.75
		C196.296,238.262,196.28,238.421,196.264,238.583z"/>
	<path fill-rule="evenodd" clip-rule="evenodd" d="M190.159,96.997c2.171,0.943,4.288,2.051,6.524,2.797
		c5.118,1.708,10.368,2.668,15.788,1.874c0.896-0.131,1.789-0.547,2.587-0.998c0.684-0.386,1.209-1.052,0.814-1.941
		c-0.399-0.902-1.165-0.885-1.971-0.635c-0.2,0.062-0.397,0.137-0.887,0.308c0.471-2.026,1.589-3.276,3.259-3.777
		c1.319-0.396,2.847-0.615,4.174-0.358c3.049,0.589,4.393,3.262,3.37,6.203c-0.215,0.623-0.539,1.207-0.814,1.808l-0.02-0.019
		c0.813-0.413,1.758-0.679,2.417-1.266c1.85-1.652,3.549-3.474,5.375-5.158c1.173-1.079,2.355-2.214,3.719-3.007
		c3.714-2.159,8.166-0.23,8.83,3.699c0.349,2.063-0.642,3.968-2.386,4.594c-1.899,0.681-4.096-0.264-5.154-2.292
		c0.215-0.051,0.402-0.129,0.595-0.138c0.897-0.042,1.583-0.472,1.526-1.375c-0.037-0.547-0.5-1.434-0.896-1.508
		c-0.71-0.132-1.709-0.006-2.24,0.434c-1.181,0.977-1.024,2.955,0.2,4.337c2.055,2.319,4.801,2.613,7.479,1.857
		c5.068-1.433,8.589-4.626,9.784-9.977c0.035-0.16,0.085-0.317,0.137-0.472c0.017-0.047,0.065-0.083,0.184-0.224
		c1.728,0.837,1.506,2.572,1.807,4.107c1.649,0.427,3.22,0.08,4.705-0.469c1.852-0.686,3.629-1.573,5.438-2.373l-0.022-0.022
		c-2.296,3.104-5.286,5.456-8.4,7.647c-7.069,4.978-15.052,7.465-23.546,8.607c-7.404,0.995-14.753,0.981-21.996-1.01
		c-7.46-2.05-14.057-5.764-19.948-10.756c-0.164-0.139-0.282-0.335-0.422-0.505L190.159,96.997z"/>
	<path fill-rule="evenodd" clip-rule="evenodd" d="M232.316,3.726c0.677,1.437,1.578,2.813,1.984,4.321
		c0.895,3.335-0.875,5.5-4.331,5.606c-3.46,0.105-6.631-2.895-6.336-6.001c0.02-0.208,0.114-0.407,0.238-0.822
		c0.414,0.459,0.663,0.964,1.045,1.102c0.552,0.197,1.201,0.128,1.806,0.172c0.035-0.562,0.307-1.288,0.055-1.65
		c-0.447-0.645-1.142-1.217-1.857-1.56c-2.419-1.166-7.829-1.193-10.817-0.06c4.873,3.722,9.537,7.505,9.992,14.427
		c-1.36-1.562-2.469-2.996-3.74-4.264c-3.475-3.463-7.74-5.319-12.603-5.586c-3.404-0.187-6.826-0.038-10.24-0.041
		c-0.25,0-0.501,0-0.879,0c19.427-13.545,51.075-10.345,65.539,6.593c-6.657-3.806-13.657-4.837-21.133-2.533
		c-0.318-3.007-0.68-5.817-3.098-7.639c-1.642-1.236-3.486-2.146-5.65-2.042l-0.027-0.064L232.316,3.726z"/>
	<path fill-rule="evenodd" clip-rule="evenodd" d="M182.51,38.594c2.482,0.358,4.024,2.066,4,4.428
		c-0.028,2.715-1.868,5.128-4.275,5.605c-2.502,0.497-4.779-0.815-5.946-3.43c-0.177-0.396-0.325-0.807-0.625-1.188
		c-0.856,2.766-0.684,5.443,0.712,8.006c1.514,2.776,3.871,3.962,7.376,3.349c-5.962,6.105-9.256,12.876-8.729,21.23
		c-4.087-7.947-4.9-16.458-4.29-25.101c0.798-11.312,5.549-23.411,10.551-28.056c-0.417,2.187-1.089,4.425-1.214,6.693
		c-0.143,2.623,0.156,5.273,0.348,7.906c0.046,0.632,0.315,1.323,0.694,1.828c0.267,0.354,0.892,0.44,1.356,0.646
		c0.071-0.437,0.167-0.87,0.201-1.311c0.017-0.206-0.083-0.423-0.13-0.635L182.51,38.594z"/>
	<path fill-rule="evenodd" clip-rule="evenodd" d="M189.877,199.947c-1.231,0.035-3.097-0.402-4.77-1.479
		c-3.188-2.05-3.542-5.839-0.816-8.462c3.21-3.089,9.23-3.631,12.942-1.168c3.135,2.082,3.476,5.655,0.795,8.326
		C196.242,198.942,193.587,199.941,189.877,199.947z"/>
	<path fill-rule="evenodd" clip-rule="evenodd" d="M226.871,52.645c-2.498-2.967-4.881-5.799-7.375-8.762
		c2.969-1.766,5.484-4.22,7.055-7.623C227.504,41.717,227.492,47.125,226.871,52.645z"/>
	<path fill-rule="evenodd" clip-rule="evenodd" d="M345.787,203.839c2.757,0.032,4.943,2.214,4.96,4.947
		c0.018,2.737-2.342,5.045-5.108,4.999c-2.772-0.042-4.923-2.22-4.919-4.977C340.72,205.963,342.922,203.807,345.787,203.839z
		 M345.636,204.852c-2.122,0.038-3.812,1.834-3.778,4.011c0.034,2.163,1.811,3.93,3.914,3.894c2.156-0.033,3.749-1.756,3.729-4.023
		C349.478,206.496,347.802,204.812,345.636,204.852z"/>
	<path fill-rule="evenodd" clip-rule="evenodd" d="M182.538,38.567l-0.028,0.026L182.538,38.567z"/>
	<polygon fill-rule="evenodd" clip-rule="evenodd" points="264.503,93.027 264.537,92.952 264.48,93.005 	"/>
	<polygon fill-rule="evenodd" clip-rule="evenodd" points="190.168,96.988 190.123,96.955 190.159,96.997 	"/>
	<path fill-rule="evenodd" clip-rule="evenodd" fill="none" d="M109.159,147.021c1.272,0.187,3.045,0.304,4.749,0.717
		c6.175,1.498,9.147,6.122,8.084,12.41c-1.01,5.971-5.127,10.019-11.16,10.778c-1.73,0.219-3.542,0.254-5.258-0.006
		c-2.744-0.416-4.23-2.514-3.854-5.262c0.786-5.738,1.68-11.464,2.499-17.2c0.104-0.734,0.42-1.08,1.144-1.129
		C106.462,147.253,107.56,147.154,109.159,147.021z"/>
	<path fill-rule="evenodd" clip-rule="evenodd" fill="none" d="M111.881,124.771c0.991,0.055,1.992,0.034,2.971,0.172
		c5.423,0.77,8.169,4.729,7.129,10.236c-0.648,3.435-2.543,5.931-5.688,7.465c-3.19,1.555-6.59,1.666-10.035,1.444
		c-0.971-0.062-1.309-0.541-1.161-1.546c0.774-5.289,1.53-10.585,2.212-15.887c0.161-1.256,0.767-1.729,1.922-1.733
		c0.883-0.006,1.765-0.003,2.646-0.003C111.879,124.87,111.88,124.821,111.881,124.771z"/>
	<path fill-rule="evenodd" clip-rule="evenodd" fill="none" d="M317.622,218.092c-0.515,3.237-1.004,6.337-1.502,9.438
		c-0.166,1.035-0.42,2.061-0.525,3.101c-0.342,3.357-4.269,6.357-8.703,5.298c-1.599-0.383-2.439-1.636-2.835-3.178
		c-1.941-7.579,3.032-14.311,10.826-14.65C315.701,218.062,316.521,218.092,317.622,218.092z"/>
	<path fill-rule="evenodd" clip-rule="evenodd" fill="none" d="M211.292,29.262c-0.711,2.277-1.207,4.611-2.166,6.737
		c-1.163,2.576-3.512,3.554-6.273,3.464c-1.681-0.054-3.348-1.831-3.691-3.95c-0.763-4.717,0.357-8.995,3.227-12.793
		c1.924-2.546,5.394-2.327,6.972,0.623C210.296,25.092,210.632,27.162,211.292,29.262z"/>
	<path fill-rule="evenodd" clip-rule="evenodd" fill="none" d="M141.239,213.034c0.42-2.898,0.811-5.674,1.225-8.445
		c0.629-4.204,1.275-8.405,1.911-12.611c0.237-1.571,0.43-1.742,2.008-1.796c2.302-0.078,4.513,0.275,6.574,1.363
		c1.675,0.883,2.899,2.181,3.65,3.925c2.829,6.558-1.048,15.009-7.861,17.106C146.389,213.3,143.983,213.44,141.239,213.034z"/>
	<path fill-rule="evenodd" clip-rule="evenodd" fill="none" d="M285.678,161.727c0.154-5.761,0.807-11.126,3.077-16.135
		c0.735-1.618,1.819-3.178,3.066-4.45c2.89-2.946,8.95-3.073,10.438,2.94c0.344,1.388,0.591,2.829,0.624,4.248
		c0.129,5.551-0.374,11.045-2.239,16.311c-0.6,1.69-1.486,3.329-2.51,4.81c-1.24,1.793-3.058,2.833-5.325,2.92
		c-3.285,0.125-5.338-1.271-6.363-4.407c-0.255-0.783-0.467-1.6-0.548-2.418C285.758,164.175,285.735,162.796,285.678,161.727z"/>
	<path fill-rule="evenodd" clip-rule="evenodd" fill="none" d="M180.941,149.356c-0.268,6.404-0.73,11.746-2.897,16.743
		c-0.667,1.533-1.613,3.067-2.791,4.242c-3.877,3.87-9.626,2.34-10.964-2.938c-0.521-2.053-0.639-4.26-0.61-6.391
		c0.068-4.993,0.711-9.938,2.681-14.565c0.803-1.887,1.946-3.756,3.355-5.231c3.018-3.159,9.146-3.041,10.504,2.938
		C180.679,146.184,180.799,148.291,180.941,149.356z"/>
	<path fill-rule="evenodd" clip-rule="evenodd" fill="none" d="M222.983,102.258l0.02,0.019L222.983,102.258z"/>
	<path fill-rule="evenodd" clip-rule="evenodd" fill="none" d="M345.636,204.852c2.166-0.04,3.842,1.645,3.865,3.881
		c0.02,2.268-1.573,3.99-3.729,4.023c-2.104,0.036-3.88-1.73-3.914-3.894C341.824,206.686,343.514,204.89,345.636,204.852z
		 M345.035,209.275c1.526-0.123,1.17,2.555,3.098,2.042c-0.439-0.754-0.818-1.405-1.21-2.076c0.828-0.755,1.579-1.6,0.776-2.593
		c-1.022-1.266-2.452-0.8-3.753-0.653c0,1.905,0,3.664,0,5.422c0.165,0.032,0.329,0.065,0.492,0.098
		C344.636,210.774,344.834,210.034,345.035,209.275z"/>
	<path fill-rule="evenodd" clip-rule="evenodd" d="M345.035,209.275c-0.201,0.759-0.399,1.499-0.597,2.239
		c-0.163-0.032-0.327-0.065-0.492-0.098c0-1.758,0-3.517,0-5.422c1.301-0.146,2.73-0.612,3.753,0.653
		c0.803,0.993,0.052,1.838-0.776,2.593c0.392,0.671,0.771,1.322,1.21,2.076C346.205,211.83,346.562,209.152,345.035,209.275z
		 M345.713,208.493c0.462-0.404,0.752-0.657,1.044-0.908c-0.344-0.249-0.669-0.643-1.038-0.691
		c-0.257-0.035-0.577,0.404-0.869,0.634C345.095,207.801,345.34,208.076,345.713,208.493z"/>
	<path fill-rule="evenodd" clip-rule="evenodd" fill="none" d="M345.713,208.493c-0.373-0.417-0.618-0.692-0.863-0.966
		c0.292-0.229,0.612-0.669,0.869-0.634c0.369,0.049,0.694,0.442,1.038,0.691C346.465,207.836,346.175,208.089,345.713,208.493z"/>
</g>
</svg>
