<?xml version="1.0" encoding="utf-8"?>
<!-- Generator: Adobe Illustrator 19.2.1, SVG Export Plug-In . SVG Version: 6.00 Build 0)  -->
<svg version="1.1" id="Layer_1" xmlns="http://www.w3.org/2000/svg" xmlns:xlink="http://www.w3.org/1999/xlink" x="0px" y="0px"
	 viewBox="0 0 136 40" style="enable-background:new 0 0 136 40;" xml:space="preserve">
<style type="text/css">
	.st0{fill:#000000;}
</style>
<g>
	<path class="st0" d="M127.8,39.9H8.2c-2.2,0-4.2-1-5.8-2.7c-1.5-1.7-2.4-4-2.4-6.5V9.3c0-5.1,3.7-9.2,8.2-9.2h119.7
		c2.2,0,4.2,1,5.8,2.7c1.5,1.7,2.4,4,2.4,6.5v21.4c0,2.5-0.8,4.8-2.4,6.5C132.1,38.9,130,39.9,127.8,39.9z M8.2,0.9
		c-4.1,0-7.4,3.8-7.4,8.5v21.4c0,2.3,0.8,4.4,2.2,6c1.4,1.6,3.2,2.5,5.2,2.5h119.7c2,0,3.8-0.9,5.2-2.5c1.4-1.6,2.2-3.7,2.2-6V9.3
		c0-2.3-0.8-4.4-2.2-6c-1.4-1.6-3.3-2.5-5.2-2.5H8.2z"/>
	<path class="st0" d="M132.6,3.9c-1.3-1.5-3-2.3-4.8-2.3H8.2c-3.7,0-6.8,3.5-6.8,7.7v21.4c0,2.1,0.7,4,2,5.4c1.3,1.5,3,2.3,4.8,2.3
		h119.7c1.8,0,3.5-0.8,4.8-2.3c1.3-1.5,2-3.4,2-5.4V9.3C134.6,7.3,133.9,5.3,132.6,3.9z M133.6,30.7c0,3.6-2.6,6.6-5.8,6.6H8.2
		c-3.2,0-5.8-2.9-5.8-6.6V9.3c0-3.6,2.6-6.6,5.8-6.6h119.7c3.2,0,5.8,2.9,5.8,6.6V30.7z"/>
	<path class="st0" d="M72.3,6.9c0.6,0,0.5,0.8,0.5,0.8v15.1c0,1.6,0,2.3,1,2.9c0.2,0.4-0.1,0.7-0.6,0.7l-4.5,0
		c-0.3,0-0.6-0.3-0.4-0.7c0.2-0.3,1.3-0.5,1.3-1.7l0-14.7c-0.1-0.8-0.3-1.2-0.9-1.4c-0.2-0.2-0.4-0.3-0.5-0.6c0-0.2,0-0.4,0.3-0.4
		H72.3z"/>
	<path class="st0" d="M13.4,26.4c-0.4,0-0.4-0.1-0.4-0.1c-0.7-1.2,1.3-1.1,1.5-2.2c0,0,0-14.2,0-14.3c-2-0.4-4.1,0.8-5.4,2.3
		l-0.6,0.1c-0.3-0.1-0.3-0.4-0.2-0.7C9,9.9,9.6,8.4,10.4,7c0.6-0.2,1,0.5,1.4,0.6c0,0,9.6,0,9.7,0C22,7.5,22.3,6.7,23,7
		c0.8,1.4,1.4,3,2.1,4.5c0.1,0.3,0.1,0.6-0.2,0.7l-0.6-0.1c-1.3-1.5-3.5-2.7-5.4-2.3c0,0.1,0,14.3,0,14.3c0.2,1.1,2.2,1,1.5,2.2
		c0,0,0,0.1-0.4,0.1H13.4z"/>
	<path class="st0" d="M23.5,26.4c-0.2,0-0.4-0.1-0.5-0.4c0-0.2,0-0.3,0.2-0.5c0.6-0.3,1.1-0.8,1.2-1.6c0,0,0-7,0-7
		c-0.3-0.8-1.3-1-1.7-1.6c-0.2-0.5,0.1-1.1,0.7-1.1c0,0,2.5,0,2.5,0c0.7,0,0.9,1.9,1.6,1.4c0.6-0.6,1.1-1.7,1.8-1.6
		c0.4,0,0.9,1.2,1.4,1.9c0.2,0.6,0.8,1,0.5,1.8c-0.2,0.2-0.4,0.2-0.8,0.1c-0.6-0.4-1-1.5-1.9-1.2c-0.5,0.2-0.8,0.4-1.1,1
		c0,0.1,0,6.4,0,6.4c0.1,0.8,0.6,1.2,1.2,1.6c0.2,0.2,0.2,0.2,0.2,0.5c-0.1,0.3-0.3,0.4-0.5,0.4H23.5z"/>
	<path class="st0" d="M121.1,15.3c-0.6-0.3-1-0.2-1.6,0c-0.6,0.4-1,1-1.1,1.7c0,0.2-0.1,0.6,0.3,0.6c0,0,3.1,0,3.1,0
		c0.4,0,0.6-0.3,0.5-0.7C122.1,16.2,121.9,15.8,121.1,15.3 M125.2,18.4c-0.2,0.3-0.5,0.4-1,0.4c0,0-5.9,0-5.9,0
		c-0.7,0.4-0.4,1-0.3,2.2c0.1,1.5,1.2,3.3,3,4.1c0.9,0.1,1.6,0.2,2.5-0.5c1.3-1.1,1.5-2.4,2-2.4c0.3,0,0,1.3,0,2
		c-0.2,0.6,0,1.4-0.7,1.6c-0.6-0.1-1.7,0.6-2.1,0.8c-0.4,0.2-0.9,0.4-1.9,0.5c-1.7,0.2-3.6-0.9-4.5-2.6c-0.6-1-0.9-2.3-0.9-4.1
		c0-1.8,1.2-4.1,2.5-5.1c1.3-1,2.9-1.1,4.7-0.5C124.6,15.2,125.6,17.8,125.2,18.4"/>
	<path class="st0" d="M93.2,24.4c0.4,0.6,1.2,1,1.9,0.8c0.9-0.1,1.7-1.1,1.7-1.9l0-6.9c0-0.8-1.3-2-3.1-1c-1.1,0.6-1.7,3.2-1.6,4.8
		C92,21.5,92.5,23.4,93.2,24.4 M99.7,24c0,0.7,0.7,1,1.1,1.4c0.4,0.4,0.4,0.9-0.1,0.9h-3.4c-0.3,0-0.6-0.8-1-0.6
		c-1.5,1.2-2.8,1.3-4.9,0.4c-2-0.9-2.8-4.9-2.2-7.1s2.9-4.7,5.5-4.8c1,0,1.6,0.7,1.9-0.3l0-1.8c-0.1-0.6-0.3-1.2-0.9-1.4
		c-0.3,0-0.7-0.4-0.7-0.6c0-0.4,0.3-0.6,0.8-0.6c0,0,4.6,0,4.7,0c0.4,0,0.5,0.6-0.1,0.8c-0.6,0.2-0.7,1.2-0.7,2L99.7,24z"/>
	<path class="st0" d="M79.3,16.6c-1,1.8-1,6.2,0,7.8c1,1.6,2.8,1.6,3.8,0.3c1.2-1.7,1.2-7.1-0.3-8.5C81.5,15.1,80,15.4,79.3,16.6
		 M86.2,17.1c1.4,2,1.1,5.3-0.2,7.1c-1.2,1.8-3.2,2.8-5.3,2.7c-2-0.2-3.8-1.5-4.7-3.3c-0.9-1.8-0.9-4.4,0-6.1
		c1.2-2.4,3.6-3.5,6.1-3.2C83.8,14.4,85.3,15.6,86.2,17.1"/>
	<path class="st0" d="M38.5,18.9c-1.4,0.8-3.2,2-2.9,3.9c0.1,1,0.7,1.8,1.6,2.4c0.7,0.3,1.7,0.4,2.4,0c2.2-1.3,0.5-4.2,0-5.3
		C39.4,19.4,39.2,18.6,38.5,18.9 M41.5,16c1,2.7,1.8,5.7,2.7,8.3c0.2,0.5,1.1,0.7,1.4,1c0.3,0.3,0.3,1-0.4,1c-0.3,0-2.4,0-2.4,0
		c-1.2,0-1.3-0.1-1.8-0.9c-0.9,0.4-1.8,1.2-2.8,1.4c-1.2,0.3-2.8,0.2-3.9-0.6c-1.2-0.9-2-2.3-1.6-3.9c0.4-2.2,2.5-3.1,4.1-4.1
		c0.6-0.4,1.9-0.6,1.8-1.3c0-0.7-0.4-0.8-0.8-1.1c-1.9-0.7-2.9,1.3-4.1,2c-0.2,0.2-0.5,0.1-0.5-0.1c0-0.4,1.4-3.4,1.6-3.4
		c0.6,0,0.7,0.3,1,0.3c1.2,0,2.4-1.1,3.7-0.5C40.3,14.5,41.1,15.3,41.5,16"/>
	<path class="st0" d="M56.3,15.2c-0.6,0.4-1.5,0.5-1.9,1.3l-4,9.9c-0.3,0.5-1.1,0.6-1.2,0.1c-0.1-0.5-3.6-10.1-3.6-10.1
		c-0.3-0.7-0.8-0.7-1.2-1.1c-0.3-0.3-0.4-0.9,0.2-0.9c0.3,0,4.5,0,4.7,0c0.2,0,0.6,0,0.7,0.4c0.1,0.6-0.5,0.6-0.8,1.2
		c-0.2,0.3-0.1,0.6-0.1,1c0.1,0.4,1.6,4.1,1.7,4.4c0.1,0.3,0.3,0.3,0.5,0c0,0,1.4-3.6,1.5-4c0.1-0.3,0.2-1.2-0.2-1.5
		c-0.4-0.4-1.4-0.6-1.2-1.3c0.1-0.1,0.2-0.2,0.5-0.2c0.2,0,4.1,0,4.1,0C56.6,14.3,56.7,14.9,56.3,15.2"/>
	<path class="st0" d="M105.2,29.5c-0.4,0.2-0.6,0.3-0.7,0.7c-0.2,0.4-0.1,1,0.2,1.4c1.3,1,3,0.8,4.5,0.8c0.8-0.2,1.7-0.2,1.9-1.2
		c0-0.5-0.6-0.8-1-1C108.4,29.8,107,29.7,105.2,29.5 M107.5,15.6c-1.6,0.3-2.2,2.3-2.3,3.9c-0.1,1.6,0.2,4.2,2.2,5.1
		c0.6,0.2,1.6-0.6,1.9-1c1.1-1.6,1.2-4.4,0.2-6.3C109.1,16.4,108.4,15.5,107.5,15.6 M114.2,14.6c0.2,0.3,0.2,0.7,0,1
		c-0.6,0.6-1.6,0-2.3,0.2c-0.2,0-0.4,0.2-0.2,0.4c1.3,1.6,1.8,3.9,1,5.9c-0.6,1.8-2.2,3.2-4,3.6c-0.9,0.1-1.7,0.2-2.6-0.1
		c-0.3-0.2-0.6,0.2-0.7,0.3c-0.2,0.4,0.1,0.8,0.4,0.8c2.4,0.4,5.1,0.4,7.2,1.8c0.8,0.6,0.9,1.7,0.7,2.8c-1,2.6-4.2,2.6-6.7,2.5
		c-1.8-0.2-4.2-0.4-5-2.4c0-1,0.5-1.7,1.1-2.3c-0.3-0.6-0.7-1-0.9-1.7c0.1-1.1,0.8-1.9,1.8-2.4c0,0,0.4-0.3,0.1-0.5
		c-1.8-1.8-2.5-4.6-1.5-7c0.9-2,2.8-3.7,5.2-3.3c1.4,0.3,2.3,0.4,4.3-0.1C112.6,14.1,113.6,14.1,114.2,14.6"/>
	<path class="st0" d="M62.3,15.3c-0.6-0.3-1-0.2-1.6,0c-0.6,0.4-1,1-1.1,1.7c0,0.2-0.1,0.6,0.3,0.6c0,0,3.1,0,3.1,0
		c0.4,0,0.6-0.3,0.5-0.7C63.3,16.2,63.1,15.8,62.3,15.3 M66.4,18.4c-0.2,0.3-0.5,0.4-1,0.4c0,0-5.9,0-5.9,0c-0.7,0.4-0.4,1-0.3,2.2
		c0.1,1.5,1.2,3.3,3,4.1c0.9,0.1,1.6,0.2,2.5-0.5c1.3-1.1,1.5-2.4,2-2.4c0.3,0,0,1.3,0,2c-0.2,0.6,0,1.4-0.7,1.6
		c-0.6-0.1-1.7,0.6-2.1,0.8c-0.4,0.2-0.9,0.4-1.9,0.5c-1.7,0.2-3.6-0.9-4.5-2.6c-0.6-1-0.9-2.3-0.9-4.1c0-1.8,1.2-4.1,2.5-5.1
		c1.3-1,2.9-1.1,4.7-0.5C65.8,15.2,66.8,17.8,66.4,18.4"/>
	<rect x="12.5" y="31" class="st0" width="87.4" height="1.1"/>
	<rect x="115.5" y="31" class="st0" width="10.2" height="1.1"/>
	<path class="st0" d="M131.2,32.9c0,1.1-0.9,1.9-1.9,1.9s-1.9-0.9-1.9-1.9c0-1.1,0.9-1.9,1.9-1.9S131.2,31.8,131.2,32.9 M127.7,32.9
		c0,0.8,0.7,1.5,1.5,1.5c0.8,0,1.5-0.7,1.5-1.5c0-0.8-0.7-1.5-1.5-1.5C128.4,31.4,127.7,32,127.7,32.9 M129.2,32.8
		c0.3,0,0.4-0.1,0.4-0.3c0-0.2-0.1-0.3-0.4-0.3h-0.4v0.6H129.2z M129.6,33.9l-0.2-0.3c-0.1-0.1-0.2-0.3-0.3-0.4
		c-0.1-0.1-0.2-0.1-0.3-0.1h-0.1v0.8h-0.4v-2h1c0.4,0,0.6,0.2,0.6,0.6c0,0.3-0.2,0.5-0.5,0.6v0c0.2,0.1,0.2,0.1,0.4,0.5l0.2,0.4
		H129.6z"/>
</g>
</svg>
